<?xml version="1.0" encoding="utf-8"?>
<!-- Generator: Adobe Illustrator 27.5.0, SVG Export Plug-In . SVG Version: 6.00 Build 0)  -->
<svg version="1.1" id="Layer_1" xmlns="http://www.w3.org/2000/svg" xmlns:xlink="http://www.w3.org/1999/xlink" x="0px" y="0px"
	 viewBox="0 0 595.3 364.9" style="enable-background:new 0 0 595.3 364.9;" xml:space="preserve">
<style type="text/css">
	.st0{fill:#EAECEB;}
	.st1{fill:#273877;}
	.st2{fill:#AAAAAD;}
	.st3{fill:#CCD533;}
	.st4{fill:#71B645;}
	.st5{fill:#26B4BB;}
	.st6{fill:#59B25A;}
	.st7{fill:#2885C7;}
	.st8{fill:#1D3A6D;}
</style>
<rect x="330.8" y="64.5" class="st0" width="4.2" height="4.2"/>
<rect x="417.9" y="116.4" class="st0" width="4.2" height="4.2"/>
<path class="st0" d="M468.8,112c1-0.5,1.9-1.2,2.5-2.1c0.6-0.9,1.1-2,1.3-3.3c0.3-1.3,0.4-2.8,0.4-4.4V72.8h-4.2v29.3
	c0,1.2-0.1,2.2-0.2,3c-0.1,0.8-0.3,1.5-0.6,2c-0.3,0.5-0.7,0.9-1.2,1.1c-0.5,0.2-1.2,0.3-2,0.3c-0.4,0-0.7,0-1-0.1
	c-0.3,0-0.7-0.1-1.2-0.3l-1.1,4c1.2,0.3,2.3,0.5,3.4,0.5C466.5,112.7,467.8,112.5,468.8,112"/>
<path class="st0" d="M454.4,65.4h-5.8v-1c0-0.5,0.1-0.9,0.3-1.2c0.2-0.2,0.6-0.4,1.3-0.4h2.9V60h-3c-1.6,0-2.8,0.4-3.7,1.3
	c-0.8,0.8-1.3,2.2-1.3,4v3.4h9.2V65.4z"/>
<rect x="409.5" y="116.4" class="st0" width="4.2" height="4.2"/>
<rect x="339.2" y="64.5" class="st0" width="4.2" height="4.2"/>
<path class="st0" d="M435.5,97.9c1.6,1.1,3.4,2,5.5,2.5c2.1,0.5,4.3,0.8,6.6,0.8h1.1l1.4-2.9v4.1c0,2.2-0.6,3.8-1.9,4.7
	c-1.3,0.9-3,1.4-5.3,1.4c-1.3,0-2.5-0.1-3.5-0.4c-1-0.2-2.2-0.7-3.5-1.3l-1.3,4c1.6,0.6,3,1,4.3,1.3c1.2,0.3,2.5,0.4,3.7,0.4
	c4.1,0,7-1,8.9-2.9c1.8-1.9,2.8-4.5,2.8-7.8V72.8h-6.7c-2.6,0-4.9,0.4-7.1,1.1c-2.1,0.7-4,1.7-5.5,3c-1.5,1.3-2.7,2.8-3.5,4.5
	c-0.8,1.8-1.3,3.7-1.3,5.7c0,2.5,0.5,4.6,1.4,6.3C432.7,95.3,434,96.8,435.5,97.9 M435.5,83.1c0.6-1.3,1.5-2.3,2.6-3.2
	c1.1-0.9,2.3-1.6,3.6-2.1c1.3-0.5,2.7-0.7,4.1-0.7v0h6.8l-2.4,1.2V97H446c-1.6,0-3-0.2-4.4-0.7c-1.4-0.4-2.6-1.1-3.6-1.9
	c-1-0.8-1.9-1.9-2.5-3.1c-0.6-1.2-0.9-2.6-0.9-4.2C434.6,85.7,434.9,84.3,435.5,83.1"/>
<path class="st0" d="M332,112.1h8.7V109c0.1,0.1,0.2,0.3,0.3,0.4c0.6,0.9,1.5,1.6,2.5,2.1c1,0.5,2.3,0.7,3.8,0.7h76.4V72.8h-4.2
	v35.3H415h-67.7c-0.8,0-1.5-0.1-2-0.3c-0.5-0.2-0.9-0.6-1.2-1.1c-0.3-0.5-0.5-1.2-0.6-2c-0.1-0.8-0.2-1.8-0.2-3V72.8h-11.3
	c-11.6,0-19.5,9.2-19.5,19.6v0.1C312.6,103.1,320.4,112.1,332,112.1 M317.1,92.4c0-8.6,6.2-15.6,14.9-15.6h9.8l-2.6,1.3v23.6
	c0,1.6,0.1,3.1,0.4,4.4c0.2,0.8,0.4,1.4,0.6,2.1l-8.2,0c-8.7,0-15-7.1-15-15.7V92.4z"/>
<polygon class="st0" points="291.7,101.7 293.5,106.6 266.9,72.8 262.7,72.8 262.7,112 267.1,112 267.1,82.5 264.6,76.7 292.4,112 
	296,112 296,72.8 291.7,72.8 "/>
<path class="st0" d="M351.3,174.7l24.1-23v-15.8h-64.5v18H344l12.3-7.9l-30.6,30.8l3.3,13.3h8.7c11.7,0,18.7,4.4,18.7,12.1v0.3
	c0,7.1-5.6,11.6-13.5,11.6c-9.7,0-16.5-4.1-23.1-11.4l-14.5,13.8c8.2,9.7,20,16.5,37.2,16.5c21.3,0,34.4-13.2,34.4-31.2v-0.3
	C376.9,183.7,364.3,176.9,351.3,174.7"/>
<path class="st0" d="M235.5,72.1c-12,0-20.1,9.5-20.1,20.3v0.1c0,10.8,8,20.2,20,20.2c12,0,20.1-9.5,20.1-20.3v-0.1
	C255.5,81.5,247.4,72.1,235.5,72.1 M250.9,92.5c0,8.9-6.4,16.1-15.4,16.1c-9,0-15.5-7.3-15.5-16.2v-0.1c0-8.9,6.4-16.1,15.4-16.1
	c9,0,15.5,7.3,15.5,16.2V92.5z"/>
<path class="st0" d="M433.2,134.3c-29.5,0-50.9,22.2-50.9,49.3v0.3c0,27.1,21.1,49,50.6,49c29.5,0,50.9-22.2,50.9-49.3v-0.3
	C483.8,156.2,462.7,134.3,433.2,134.3 M461.9,183.9c0,16.3-11.7,29.7-28.6,29.7c-16.9,0-28.9-13.6-28.9-30v-0.3
	c0-16.3,11.7-29.7,28.6-29.7c16.9,0,28.9,13.6,28.9,29.9V183.9z"/>
<rect x="203.3" y="72.8" class="st0" width="4.4" height="39.2"/>
<path class="st0" d="M132,220.4l4.1-3.1l20.9-16.1c16.9-13.1,25.1-21,25.1-36.9V164c0-17.8-13.1-29.4-32.9-29.4
	c-17,0-26.2,6.9-35.6,19.7l14.7,11.8c7.1-8.7,12.1-12.8,19.5-12.8c7.5,0,12.8,4.4,12.8,12.4c0,7.9-4.6,13.1-16.5,22.9l-31.8,26v16.6
	H183v-18.1h-36.4L132,220.4z"/>
<polygon class="st0" points="132.3,112.3 149.2,72.8 144.4,72.8 131,105 131.5,109.3 130.4,106.6 118.8,78.6 116.4,72.8 111.4,72.8 
	128.3,112.3 "/>
<rect x="155.2" y="72.8" class="st0" width="4.4" height="39.2"/>
<path class="st0" d="M183.1,90.3c-8.7-1.9-10.7-3.9-10.7-7.6v-0.1c0-3.5,3.3-6.3,8.4-6.3c4,0,7.7,1.3,11.3,4.3l2.6-3.4
	c-4-3.2-8.1-4.8-13.8-4.8c-7.5,0-12.9,4.5-12.9,10.7V83c0,6.4,4.2,9.4,13.2,11.3c8.3,1.7,10.2,3.8,10.2,7.5v0.1
	c0,3.9-3.5,6.7-8.8,6.7c-5.5,0-9.4-1.8-13.5-5.5l-2.8,3.3c4.7,4.2,9.8,6.3,16.1,6.3c7.8,0,13.4-4.4,13.4-11.1v-0.1
	C196,95.4,191.9,92.2,183.1,90.3"/>
<polygon class="st1" points="240,128 244.9,132.7 240.2,137.5 235.4,132.9 "/>
<polygon class="st2" points="251.1,132.9 255.9,137.5 260.6,132.7 255.7,128 "/>
<polygon class="st3" points="244.3,138.9 248.1,142.6 251.7,138.8 247.9,135.2 "/>
<polygon class="st4" points="258.1,141 261.9,144.6 265.5,140.9 261.7,137.3 "/>
<polygon class="st3" points="238.1,144.7 241.9,148.3 245.5,144.5 241.7,140.9 "/>
<polygon class="st5" points="250.8,145.1 254.5,148.7 258.1,145 254.4,141.4 "/>
<polygon class="st4" points="245.8,149.5 248.5,152 251,149.3 248.4,146.8 "/>
<polygon class="st6" points="255.8,151.4 258.5,154 261,151.3 258.4,148.8 "/>
<rect x="278.3" y="130.5" transform="matrix(0.9836 -0.1802 0.1802 0.9836 -19.65 53.1229)" class="st7" width="8.4" height="8.3"/>
<rect x="267.5" y="134.1" transform="matrix(0.9836 -0.1801 0.1801 0.9836 -20.3321 51.0345)" class="st8" width="6.7" height="6.7"/>
<rect x="280.2" y="143.3" transform="matrix(0.9836 -0.1804 0.1804 0.9836 -21.8036 53.5689)" class="st5" width="6.7" height="6.7"/>
<rect x="271" y="144.4" transform="matrix(0.9836 -0.1801 0.1801 0.9836 -22.0029 51.6884)" class="st3" width="5.2" height="5.2"/>
<rect x="281" y="154.1" transform="matrix(0.9836 -0.1801 0.1801 0.9836 -23.5912 53.6415)" class="st2" width="5.2" height="5.2"/>
<rect x="263.3" y="146.5" transform="matrix(0.9836 -0.1801 0.1801 0.9836 -22.506 50.3422)" class="st5" width="5.2" height="5.2"/>
<rect x="272.6" y="153.2" transform="matrix(0.9836 -0.1801 0.1801 0.9836 -23.5603 52.1253)" class="st4" width="5.2" height="5.2"/>
<rect x="266" y="154" transform="matrix(0.9836 -0.1804 0.1804 0.9836 -23.7133 50.8718)" class="st2" width="3.7" height="3.7"/>
<rect x="272.9" y="161.4" transform="matrix(0.9837 -0.1798 0.1798 0.9837 -24.8721 52.052)" class="st6" width="3.7" height="3.7"/>
<polygon class="st1" points="302.1,158.2 298.5,165.7 306,169.3 309.6,161.8 "/>
<polygon class="st5" points="291.4,154.7 288.5,160.8 294.5,163.6 297.4,157.6 "/>
<polygon class="st4" points="296.3,169.6 293.4,175.6 299.5,178.5 302.4,172.5 "/>
<polygon class="st3" points="288.4,165.1 286.1,169.8 290.9,172 293.1,167.3 "/>
<polygon class="st3" points="290.8,178.8 288.5,183.5 293.2,185.7 295.5,181 "/>
<polygon class="st7" points="280.9,162.3 278.7,167 283.4,169.2 285.6,164.5 "/>
<polygon class="st2" points="284.5,173.2 282.3,177.9 287,180.1 289.3,175.4 "/>
<polygon class="st4" points="278.9,169.8 277.3,173.1 280.6,174.7 282.2,171.4 "/>
<rect x="279.2" y="180.5" transform="matrix(0.4298 -0.9029 0.9029 0.4298 -4.4395 357.7074)" class="st5" width="3.7" height="3.7"/>
<polygon class="st7" points="306.1,194.3 298.8,198.3 302.8,205.6 310.1,201.6 "/>
<polygon class="st5" points="299.5,185.2 293.6,188.4 296.8,194.3 302.7,191 "/>
<polygon class="st5" points="294.8,200.1 288.9,203.4 292.1,209.2 298,206 "/>
<polygon class="st1" points="291,191.8 286.4,194.3 288.9,198.9 293.5,196.4 "/>
<polygon class="st6" points="284.9,204.4 280.3,206.9 282.8,211.4 287.4,208.9 "/>
<polygon class="st8" points="286.6,185.2 282,187.7 284.5,192.3 289.1,189.8 "/>
<polygon class="st3" points="283.2,196.1 278.6,198.7 281.1,203.2 285.7,200.7 "/>
<polygon class="st2" points="280.5,190.1 277.3,191.9 279.1,195.1 282.3,193.4 "/>
<polygon class="st5" points="275.6,199.1 272.4,200.8 274.2,204 277.4,202.3 "/>
<rect x="279.5" y="225.3" transform="matrix(0.1227 -0.9924 0.9924 0.1227 21.085 482.8292)" class="st4" width="8.3" height="8.4"/>
<rect x="281.1" y="214.2" transform="matrix(0.1229 -0.9924 0.9924 0.1229 33.632 473.1202)" class="st8" width="6.7" height="6.7"/>
<rect x="268.6" y="223.6" transform="matrix(0.1229 -0.9924 0.9924 0.1229 13.2863 468.8642)" class="st5" width="6.7" height="6.7"/>
<rect x="271.9" y="214.7" transform="matrix(0.1227 -0.9924 0.9924 0.1227 25.1644 463.1331)" class="st4" width="5.2" height="5.2"/>
<rect x="259.6" y="221.3" transform="matrix(0.1227 -0.9924 0.9924 0.1227 7.8352 456.7144)" class="st2" width="5.2" height="5.2"/>
<rect x="272.2" y="206.8" transform="matrix(0.1229 -0.9924 0.9924 0.1229 33.2638 456.4098)" class="st2" width="5.2" height="5.2"/>
<rect x="263" y="213.6" transform="matrix(0.1229 -0.9924 0.9924 0.1229 18.3833 453.295)" class="st4" width="5.2" height="5.2"/>
<rect x="266" y="207.3" transform="matrix(0.1227 -0.9924 0.9924 0.1227 27.4191 449.3438)" class="st2" width="3.7" height="3.7"/>
<rect x="256.8" y="211.7" transform="matrix(0.1225 -0.9925 0.9925 0.1225 15.0576 444.0978)" class="st2" width="3.7" height="3.7"/>
<polygon class="st0" points="255.3,241.1 249.2,235.4 243.5,241.5 249.6,247.2 "/>
<polygon class="st0" points="254.2,124.3 248,118.6 242.4,124.7 248.5,130.4 "/>
<polygon class="st5" points="261.8,231.9 256.9,227.4 252.4,232.3 257.3,236.8 "/>
<polygon class="st0" points="246.1,232.2 241.2,227.6 236.7,232.5 241.6,237.1 "/>
<polygon class="st7" points="252.8,226 249,222.5 245.5,226.3 249.3,229.8 "/>
<polygon class="st3" points="239,224.2 235.2,220.6 231.6,224.4 235.4,228 "/>
<polygon class="st3" points="257.7,219.7 253.9,216.2 250.4,220 254.2,223.5 "/>
<polygon class="st2" points="246.3,219.9 242.4,216.4 238.9,220.2 242.7,223.7 "/>
<polygon class="st8" points="251.1,215.5 248.4,213 245.9,215.7 248.6,218.2 "/>
<polygon class="st2" points="241.1,213.7 238.4,211.2 235.9,213.9 238.6,216.4 "/>
<rect x="210.5" y="226.7" transform="matrix(0.9805 -0.1964 0.1964 0.9805 -41.1681 46.6692)" class="st7" width="8.4" height="8.3"/>
<rect x="223" y="224.6" transform="matrix(0.9805 -0.1964 0.1964 0.9805 -40.3587 48.8955)" class="st5" width="6.7" height="6.7"/>
<rect x="210.1" y="215.6" transform="matrix(0.9804 -0.1968 0.1968 0.9804 -38.9134 46.2825)" class="st4" width="6.7" height="6.7"/>
<rect x="220.8" y="215.8" transform="matrix(0.9805 -0.1964 0.1964 0.9805 -38.5524 48.1319)" class="st3" width="5.2" height="5.2"/>
<rect x="228.4" y="213.6" transform="matrix(0.9805 -0.1964 0.1964 0.9805 -37.969 49.5923)" class="st1" width="5.2" height="5.2"/>
<rect x="219" y="207.1" transform="matrix(0.9805 -0.1965 0.1965 0.9805 -36.8774 47.6323)" class="st7" width="5.2" height="5.2"/>
<rect x="227.2" y="207.7" transform="matrix(0.9806 -0.1962 0.1962 0.9806 -36.6663 49.0219)" class="st4" width="3.7" height="3.7"/>
<rect x="220.2" y="200.4" transform="matrix(0.9805 -0.1967 0.1967 0.9805 -35.4387 47.6187)" class="st2" width="3.7" height="3.7"/>
<polygon class="st5" points="194.7,207.7 198.2,200.1 190.6,196.7 187.1,204.2 "/>
<polygon class="st3" points="205.5,211 208.3,204.9 202.2,202.1 199.4,208.2 "/>
<polygon class="st7" points="200.3,196.2 203.1,190.1 197,187.3 194.2,193.4 "/>
<rect x="204.4" y="194.5" transform="matrix(0.4149 -0.9099 0.9099 0.4149 -58.2618 303.7081)" class="st5" width="5.2" height="5.2"/>
<polygon class="st2" points="214.7,212.5 216.8,207.7 212.1,205.6 209.9,210.3 "/>
<rect x="201.8" y="180.9" transform="matrix(0.415 -0.9098 0.9098 0.415 -47.3527 293.3025)" class="st1" width="5.2" height="5.2"/>
<rect x="211.9" y="197.2" transform="matrix(0.4151 -0.9098 0.9098 0.4151 -56.3292 312.0484)" class="st6" width="5.2" height="5.2"/>
<rect x="208.1" y="186.4" transform="matrix(0.4154 -0.9097 0.9097 0.4154 -48.742 302.1833)" class="st3" width="5.2" height="5.2"/>
<polygon class="st8" points="217.7,195.7 219.3,192.3 215.9,190.8 214.4,194.2 "/>
<polygon class="st4" points="216.3,185.6 217.8,182.3 214.5,180.8 213,184.1 "/>
<polygon class="st5" points="190.1,171.7 197.3,167.6 193.2,160.3 185.9,164.5 "/>
<polygon class="st4" points="196.9,180.7 202.7,177.4 199.4,171.6 193.6,174.9 "/>
<polygon class="st8" points="201.3,165.6 207.1,162.3 203.8,156.5 198,159.8 "/>
<polygon class="st7" points="205.2,173.9 209.8,171.3 207.2,166.8 202.7,169.4 "/>
<polygon class="st4" points="211.1,161.3 215.7,158.7 213.1,154.2 208.6,156.7 "/>
<polygon class="st5" points="209.8,180.4 214.3,177.9 211.7,173.3 207.2,175.9 "/>
<polygon class="st3" points="213,169.4 217.5,166.9 215,162.3 210.4,164.9 "/>
<polygon class="st2" points="215.8,175.4 219,173.6 217.1,170.4 213.9,172.2 "/>
<polygon class="st4" points="220.5,166.4 223.7,164.6 221.9,161.4 218.7,163.2 "/>
<rect x="207.8" y="131.9" transform="matrix(0.1063 -0.9943 0.9943 0.1063 54.0979 332.427)" class="st4" width="8.3" height="8.4"/>
<rect x="208" y="144.7" transform="matrix(0.1064 -0.9943 0.9943 0.1064 41.6101 342.467)" class="st2" width="6.7" height="6.7"/>
<rect x="220.4" y="135.1" transform="matrix(0.1064 -0.9943 0.9943 0.1064 62.2508 346.2553)" class="st5" width="6.7" height="6.7"/>
<rect x="218.7" y="145.5" transform="matrix(0.1066 -0.9943 0.9943 0.1066 50.4229 352.3584)" class="st3" width="5.2" height="5.2"/>
<rect x="230.9" y="138.7" transform="matrix(0.1062 -0.9943 0.9943 0.1062 68.138 358.4583)" class="st7" width="5.2" height="5.2"/>
<rect x="218.5" y="153.5" transform="matrix(0.1066 -0.9943 0.9943 0.1066 42.3559 359.2839)" class="st5" width="5.2" height="5.2"/>
<rect x="227.6" y="146.5" transform="matrix(0.1065 -0.9943 0.9943 0.1065 57.4662 362.0678)" class="st4" width="5.2" height="5.2"/>
<rect x="226.3" y="154.3" transform="matrix(0.1063 -0.9943 0.9943 0.1063 48.5365 366.362)" class="st8" width="3.7" height="3.7"/>
<rect x="235.4" y="149.8" transform="matrix(0.1058 -0.9944 0.9944 0.1058 61.3025 371.4862)" class="st2" width="3.7" height="3.7"/>
<path class="st0" d="M274.6,188c-0.6-0.4-1.8-0.9-3.3-1.4c-2.3-0.7-5.4-1.3-9.1-0.7c-1.3,0.2-2.6,0.5-3.9,1c-0.1,0-0.3,0.1-0.4,0.1
	c-0.7,0.3-1.4,0.6-2.1,0.9c-0.6,0.3-1.2,0.6-1.8,1c-1.3,0.8-2.7,1.7-4,2.7c-1.5-8.9-0.8-17.1-0.4-21.2c0,0,0,0,0,0
	c3.1,2,2.3,7.5,1.6,9.1c0,0,0,0.1,0.1,0c3.9-4.6,2-9.7,1.2-11c0,0,0-0.1,0,0c0.6,0.5,1,0.9,1.4,1.4c1.2,1.5,1.7,3.2,1.8,4.7
	c0.1,0.8,0,1.5,0,2.1c0,0.2,0,0.3,0,0.5c0,0,0,0,0,0c0,0,0,0,0,0c1.1-2.1,1.6-5.2,0-8.3c-0.4-0.8-1-1.6-1.8-2.4
	c-0.2-0.2-0.5-0.5-0.7-0.7c0,0,0-0.1,0-0.1c0.2,0.1,0.5,0.1,0.7,0.2c0.7,0.2,1.3,0.6,1.8,0.9c1.2,0.9,2,2.1,2.5,3.3
	c0.4,1,0.6,2.1,0.6,3.1c0,0,0.1,0,0.1,0c0.7-2.7,0.3-4.8-0.6-6.3c-0.7-1.1-1.6-1.9-2.5-2.4c-0.6-0.4-1.2-0.6-1.8-0.8
	c-0.3-0.1-0.6-0.2-0.9-0.2c0,0,0-0.1,0-0.1c0.3,0,0.6,0,0.8,0c0.7,0,1.2,0,1.8,0.1c1.1,0.2,1.9,0.6,2.5,1c1,0.7,1.5,1.5,1.7,1.8
	c0,0,0.1,0,0.1,0c-0.1-1.4-0.8-2.5-1.7-3.4c-0.7-0.6-1.6-1.1-2.5-1.3c-0.6-0.2-1.2-0.2-1.8-0.3c-0.8,0-1.6,0.1-2.2,0.4
	c0,0-0.1,0,0,0c0.6-0.8,1.4-1.3,2.3-1.6c0.6-0.2,1.2-0.2,1.8-0.2c0.5,0,1.1,0.1,1.5,0.3c0,0,0.1,0,0,0c-0.4-0.5-1-0.9-1.5-1.2
	c-0.6-0.3-1.2-0.5-1.8-0.6c-1.6-0.2-3.2,0.5-4.3,2.1c0,0,0,0-0.1,0c-0.2-0.4-0.4-0.8-0.6-1.2c-0.4-1-0.8-2.1-1-3.2c0,0,0,0-0.1,0
	c-0.2,1.1-0.5,2.2-1,3.3c-0.2,0.4-0.4,0.8-0.6,1.2c0,0,0,0-0.1,0c-1.9-2.8-5.4-2.8-7.6-0.3c0,0,0,0.1,0,0c1.4-0.7,4.1-0.5,5.5,1.5
	c0,0,0,0.1,0,0c-2.1-0.9-5.3-0.3-7.1,1.7c-0.6,0.7-1,1.7-1.2,2.8c0,0,0,0.1,0.1,0c0.1-0.3,0.5-0.8,1.1-1.3c1-0.9,2.8-1.8,5.7-1.5
	c0,0,0,0.1,0,0.1c-1.5,0.2-4.6,1.5-5.7,4.5c-0.5,1.3-0.6,3-0.1,5.1c0,0,0.1,0,0.1,0c0,0,0-0.1,0-0.1c0-2.8,1.6-6.5,5.5-7.4
	c0,0,0.1,0,0,0.1c-4.4,3.8-3.9,8.6-2.5,11.4c0,0,0.1,0,0.1,0c-0.2-2.1-0.3-5.9,3.2-8.7c0,0,0.1,0,0,0c-0.8,1.3-2.7,6.4,1.2,11
	c0,0,0.1,0,0.1,0c-0.7-1.6-1.5-7.1,1.6-9.1c0,0,0,0,0,0c0.3,4.1,1.1,12.3-0.4,21.2c-2.5-1.9-5.2-3.6-7.8-4.6c-0.3-0.1-0.6-0.2-1-0.3
	c-2.7-0.9-5.2-1.1-7.4-1.1c-3.5,0.2-6.2,1.2-7.6,1.9c-0.3,0.1-0.5,0.3-0.7,0.4c-0.1,0,0,0.2,0.1,0.1c0.2-0.1,0.5-0.1,0.7-0.2
	c2.7-0.8,5.2-1,7.6-0.8c2.6,0.2,5.1,1,7.4,2c3.2,1.5,6.2,3.5,8.8,5.7c-3.7,3.3-6.9,6.4-8.8,7.5c-0.1,0.1-0.2,0.1-0.3,0.2
	c-0.5-0.6-1.3-1-2.1-0.8c-0.8,0.2-1.4,0.8-1.5,1.5c-0.2,0.7,0,1.4,0.4,1.8c1,1,2.2,1.1,3.6,0.5c2.6-1.1,5.8-4.5,9.8-8.1
	c0.3-0.3,0.7-0.6,1-0.9c0.3,0.3,0.7,0.6,1,0.9c1.8,1.6,3.4,3.2,4.9,4.6c0.6,0.6,1.2,1.1,1.8,1.5c0.9,0.7,1.7,1.3,2.5,1.7
	c1.5,0.8,2.8,0.9,3.9-0.1c0.1-0.1,0.1-0.1,0.2-0.2c0.3-0.3,0.6-1.1,0.4-1.8c-0.1-0.4-0.3-0.7-0.6-1c-0.3-0.3-0.6-0.4-1-0.5
	c-0.9-0.2-1.7,0.2-2.1,0.8c-0.3-0.1-0.5-0.3-0.9-0.5c-0.7-0.5-1.5-1.2-2.5-2c-0.6-0.5-1.2-1-1.8-1.6c-1.2-1.1-2.6-2.3-4-3.6
	c1.3-1.1,2.6-2.1,4-3c0.6-0.4,1.2-0.8,1.8-1.1c0.8-0.5,1.6-0.9,2.5-1.3c1.3-0.6,2.6-1.1,3.9-1.5c2.8-0.8,5.9-1.1,9.1-0.6
	c1.1,0.2,2.1,0.4,3.2,0.8C274.6,188.2,274.7,188.1,274.6,188"/>
<rect x="130.8" y="278.8" class="st0" width="2.5" height="2.5"/>
<path class="st0" d="M296.5,276v-16.2h-2.4v13.8h-9v-13.8h-2.4v13.8h-9.5v-13.8h-3.8c-1.5,0-2.9,0.2-4.1,0.6c-1.2,0.4-2.3,1-3.1,1.7
	c-0.9,0.7-1.5,1.6-2,2.6c-0.5,1-0.7,2.1-0.7,3.2c0,1.4,0.3,2.6,0.8,3.6c0.5,1,1.3,1.9,2.2,2.5c0.9,0.7,1.9,1.1,3.1,1.5
	c1.2,0.3,2.5,0.5,3.8,0.5H296.5z M265.8,273.2c-0.8-0.3-1.5-0.6-2.1-1.1c-0.6-0.5-1.1-1.1-1.4-1.8c-0.3-0.7-0.5-1.5-0.5-2.4
	c0-0.9,0.2-1.6,0.6-2.3c0.4-0.7,0.9-1.3,1.5-1.8c0.6-0.5,1.3-0.9,2.1-1.2c0.8-0.3,1.6-0.4,2.4-0.4h2.4v11.5h-2.4
	C267.4,273.6,266.6,273.5,265.8,273.2"/>
<rect x="245.2" y="254.5" class="st0" width="2.4" height="21.5"/>
<rect x="270.6" y="254.5" class="st0" width="2.5" height="2.5"/>
<rect x="294" y="278.8" class="st0" width="2.5" height="2.5"/>
<rect x="135" y="278.8" class="st0" width="2.5" height="2.5"/>
<path class="st0" d="M235.8,273.6h-3.9c-1.4,0-2.5-0.2-3.3-0.6c-0.8-0.4-1.4-1-1.9-1.8c0.1-0.6,0.2-1.4,0.2-2.2v-7.7h-2.4v8.1
	c0,1.4-0.4,2.5-1.1,3.3c-0.7,0.8-1.9,1.2-3.4,1.2c-0.7,0-1.3-0.1-1.9-0.3c-0.6-0.2-1.1-0.5-1.5-0.9c-0.4-0.4-0.7-0.8-1-1.3
	c-0.2-0.5-0.4-1.1-0.4-1.6v-8.5h-2.4v8.3c0,0.7-0.1,1.4-0.3,1.9c-0.2,0.5-0.5,0.9-0.9,1.3c-0.4,0.3-0.8,0.6-1.3,0.7
	c-0.5,0.1-1,0.2-1.5,0.2h-4.6v-12.3h-2.4v12.3h-12.6l4.2-10c-0.6-0.6-1.3-1.1-2-1.6c-0.7-0.5-1.5-0.9-2.2-1.3
	c-0.8-0.4-1.5-0.7-2.3-0.9c-0.8-0.2-1.5-0.3-2.3-0.3c-0.8,0-1.6,0.1-2.3,0.3c-0.8,0.2-1.6,0.5-2.3,0.9c-0.8,0.4-1.5,0.8-2.2,1.3
	c-0.7,0.5-1.4,1-2,1.6l4.2,10h-8.3v-13.8h-3.8c-1.5,0-2.8,0.2-4,0.6c-1.2,0.4-2.3,1-3.1,1.7c-0.9,0.7-1.5,1.6-2,2.6
	c-0.5,1-0.7,2.1-0.7,3.3c0,1.4,0.3,2.6,0.8,3.6c0.5,1,1.2,1.8,2.2,2.5c0.9,0.6,2,1.1,3.2,1.4c1.2,0.3,2.5,0.5,3.8,0.5h1.4v0.7
	c0,1.3-0.4,2.2-1.1,2.7c-0.7,0.5-1.7,0.8-3,0.8c-0.7,0-1.4-0.1-2-0.2c-0.6-0.1-1.3-0.4-2-0.7l-0.7,2.3c0.9,0.3,1.7,0.6,2.4,0.8
	c0.7,0.2,1.4,0.3,2.1,0.3c2.3,0,4-0.6,5.1-1.7c1.1-1.1,1.6-2.6,1.6-4.5V276h37.2c1.2,0,2.2-0.2,3.1-0.7c0.9-0.5,1.6-1.2,2.2-2
	c0.6,1,1.4,1.7,2.4,2.2c1,0.5,2.2,0.8,3.6,0.8c1.4,0,2.7-0.2,3.7-0.7c1-0.5,1.8-1.3,2.3-2.3c0.2,0.3,0.4,0.7,0.7,1
	c0.3,0.3,0.7,0.6,1.1,0.9c0.5,0.3,1,0.5,1.7,0.6c0.5,0.1,1.1,0.2,1.7,0.2v0h6.9v-21.5h-2.4V273.6z M169.2,273.6h-2.4
	c-0.9,0-1.7-0.1-2.5-0.4c-0.8-0.2-1.5-0.6-2.1-1.1c-0.6-0.5-1.1-1.1-1.4-1.8c-0.3-0.7-0.5-1.5-0.5-2.4c0-0.9,0.2-1.6,0.6-2.4
	c0.4-0.7,0.9-1.3,1.5-1.8c0.6-0.5,1.3-0.9,2.1-1.2c0.8-0.3,1.6-0.4,2.4-0.4h2.4V273.6z M182.4,273.6l-3.7-9.2
	c0.9-0.8,1.9-1.3,2.8-1.7c1-0.4,2-0.5,3-0.5c1.1,0,2.1,0.2,3.2,0.6c1.1,0.4,2,1,2.7,1.6l-3.7,9.2H182.4z"/>
<rect x="122.6" y="254.5" class="st0" width="2.5" height="2.5"/>
<rect x="365.1" y="254.5" class="st0" width="2.5" height="2.5"/>
<rect x="343.8" y="254.5" class="st0" width="2.4" height="21.5"/>
<rect x="266.4" y="254.5" class="st0" width="2.5" height="2.5"/>
<path class="st0" d="M154,266.6c0-0.9-0.1-1.8-0.4-2.6c-0.2-0.8-0.6-1.5-1.2-2.1c-0.6-0.7-1.4-1.2-2.1-1.6c-0.8-0.3-1.8-0.5-2.9-0.5
	h-1.8v2.4h2.1c0.6,0,1.1,0.1,1.6,0.4c0.5,0.2,0.9,0.6,1.3,1c0.3,0.4,0.6,0.9,0.7,1.4c0.1,0.5,0.2,1.1,0.2,1.8v6.9h-11.2v2.4H154
	V266.6z"/>
<rect x="470.6" y="254.5" class="st0" width="2.4" height="21.5"/>
<rect x="369.3" y="254.5" class="st0" width="2.5" height="2.5"/>
<path class="st0" d="M463.6,254.5h-2.4v19.1H453c0.5-1.1,0.7-2.3,0.7-3.5c0-1.2-0.2-2.4-0.7-3.5c-0.5-1.1-1.1-2-1.8-2.8
	c-0.8-0.8-1.7-1.4-2.8-1.8c-1.1-0.4-2.2-0.7-3.5-0.7c-1.2,0-2.3,0.2-3.4,0.7c-1,0.5-1.9,1.1-2.7,1.9c-0.8,0.8-1.4,1.7-1.8,2.8
	c-0.4,1.1-0.7,2.2-0.7,3.4c0,0.6,0.1,1.3,0.2,1.8c0.1,0.6,0.3,1.2,0.5,1.7h-7.4c0.5-1.1,0.7-2.3,0.7-3.5c0-1.2-0.2-2.4-0.7-3.5
	c-0.4-1.1-1.1-2-1.8-2.8c-0.8-0.8-1.7-1.4-2.8-1.8c-1.1-0.4-2.2-0.7-3.5-0.7c-1.2,0-2.3,0.2-3.4,0.7c-1,0.5-1.9,1.1-2.7,1.9
	c-0.8,0.8-1.4,1.7-1.8,2.8c-0.4,1.1-0.7,2.2-0.7,3.4c0,0.6,0.1,1.3,0.2,1.8c0.1,0.6,0.3,1.2,0.5,1.7h-7.6v-19.1h-2.4v19.1h-7.6v-3.7
	c0-0.9-0.1-1.8-0.4-2.6c-0.2-0.8-0.6-1.5-1.1-2.1c-0.6-0.7-1.3-1.2-2.1-1.6c-0.8-0.3-1.8-0.5-3-0.5h-10.6l4.5-8.6H381l-4.6,8.6
	c0.1,0.5,0.2,1,0.4,1.3s0.4,0.7,0.7,1.1h12.2c0.8,0,1.4,0.1,2,0.3c0.6,0.2,1,0.5,1.3,0.9c0.3,0.4,0.6,0.9,0.7,1.4
	c0.1,0.5,0.2,1.1,0.2,1.7v3.7h-22.2v-13.8H368c-1.5,0-2.9,0.2-4.1,0.6c-1.2,0.4-2.3,1-3.1,1.7c-0.9,0.7-1.5,1.6-2,2.6
	c-0.5,1-0.7,2.1-0.7,3.2c0,1.4,0.3,2.6,0.8,3.6c0.5,1,1.3,1.9,2.2,2.5c0.9,0.7,1.9,1.1,3.1,1.5c1.2,0.3,2.5,0.5,3.8,0.5h47.5
	c0.8,0.8,1.7,1.5,2.8,2c1.1,0.5,2.2,0.7,3.5,0.7c1.3,0,2.5-0.2,3.6-0.7c1.1-0.5,2.1-1.1,2.9-2h10.5c0.8,0.8,1.7,1.5,2.8,2
	c1.1,0.5,2.2,0.7,3.5,0.7c1.3,0,2.5-0.2,3.6-0.7c1.1-0.5,2.1-1.1,2.9-2h12.2V254.5z M369.3,273.6H367c-0.9,0-1.7-0.1-2.5-0.4
	c-0.8-0.3-1.5-0.6-2.1-1.1c-0.6-0.5-1.1-1.1-1.4-1.8c-0.3-0.7-0.5-1.5-0.5-2.4c0-0.9,0.2-1.6,0.6-2.3c0.4-0.7,0.9-1.3,1.5-1.8
	c0.6-0.5,1.3-0.9,2.1-1.2c0.8-0.3,1.6-0.4,2.4-0.4h2.4V273.6z M427.6,272.5c-0.3,0.8-0.8,1.4-1.4,2c-0.6,0.6-1.2,1-2,1.3
	c-0.8,0.3-1.6,0.5-2.5,0.5c-0.9,0-1.7-0.2-2.4-0.5c-0.7-0.3-1.4-0.8-1.9-1.3c-0.6-0.6-1-1.2-1.3-2c-0.3-0.8-0.5-1.6-0.5-2.4
	c0-0.9,0.2-1.7,0.5-2.4c0.3-0.8,0.7-1.4,1.3-2c0.5-0.6,1.2-1,1.9-1.4c0.8-0.3,1.6-0.5,2.5-0.5c0.9,0,1.8,0.2,2.5,0.5
	c0.8,0.3,1.4,0.8,2,1.3c0.6,0.6,1,1.2,1.3,2c0.3,0.8,0.5,1.6,0.5,2.5C428.1,270.9,428,271.8,427.6,272.5 M450.9,272.5
	c-0.3,0.8-0.8,1.4-1.3,2c-0.6,0.6-1.2,1-2,1.3c-0.8,0.3-1.6,0.5-2.5,0.5c-0.9,0-1.7-0.2-2.4-0.5c-0.7-0.3-1.4-0.8-1.9-1.3
	c-0.5-0.6-1-1.2-1.3-2c-0.3-0.8-0.5-1.6-0.5-2.4c0-0.9,0.2-1.7,0.5-2.4c0.3-0.8,0.7-1.4,1.3-2c0.5-0.6,1.2-1,1.9-1.4
	c0.7-0.3,1.6-0.5,2.5-0.5c0.9,0,1.8,0.2,2.5,0.5c0.8,0.3,1.4,0.8,2,1.3c0.6,0.6,1,1.2,1.3,2c0.3,0.8,0.5,1.6,0.5,2.5
	C451.4,270.9,451.2,271.8,450.9,272.5"/>
<path class="st0" d="M117.5,275.5c1.2,0.3,2.5,0.5,3.8,0.5H137v-16.2h-2.4v13.8h-9.5v-13.8h-3.8c-1.5,0-2.9,0.2-4.1,0.6
	c-1.2,0.4-2.3,1-3.1,1.7c-0.9,0.7-1.5,1.6-2,2.6c-0.5,1-0.7,2.1-0.7,3.2c0,1.4,0.3,2.6,0.8,3.6c0.5,1,1.3,1.9,2.2,2.5
	C115.3,274.7,116.3,275.2,117.5,275.5 M113.8,267.9c0-0.9,0.2-1.6,0.6-2.3c0.4-0.7,0.9-1.3,1.5-1.8c0.6-0.5,1.3-0.9,2.1-1.2
	c0.8-0.3,1.6-0.4,2.4-0.4h2.4v11.5h-2.4c-0.9,0-1.7-0.1-2.5-0.4c-0.8-0.3-1.5-0.6-2.1-1.1c-0.6-0.5-1.1-1.1-1.4-1.8
	C114,269.6,113.8,268.8,113.8,267.9"/>
<rect x="285.3" y="278.8" class="st0" width="2.5" height="2.5"/>
<rect x="281.1" y="278.8" class="st0" width="2.5" height="2.5"/>
<path class="st0" d="M305.8,279c0.2-0.7,0.2-1.6,0.2-2.5V276h30.8v-21.5h-2.4v19.1h-10.2l4.2-10c-0.6-0.6-1.3-1.1-2-1.6
	c-0.7-0.5-1.5-0.9-2.2-1.3c-0.8-0.4-1.5-0.7-2.3-0.9c-0.8-0.2-1.5-0.3-2.3-0.3c-0.8,0-1.6,0.1-2.3,0.3c-0.8,0.2-1.6,0.5-2.3,0.9
	c-0.8,0.4-1.5,0.8-2.2,1.3c-0.7,0.5-1.4,1-2,1.6l4.2,10H306v-13.8h-2.4v16.7c0,0.7,0,1.3-0.1,1.7c-0.1,0.5-0.2,0.8-0.4,1.1
	c-0.2,0.3-0.4,0.5-0.7,0.6c-0.3,0.1-0.7,0.2-1.1,0.2c-0.2,0-0.4,0-0.6,0c-0.2,0-0.4-0.1-0.7-0.2l-0.6,2.3c0.7,0.2,1.3,0.3,1.9,0.3
	c0.9,0,1.6-0.1,2.2-0.4c0.6-0.3,1.1-0.7,1.4-1.2C305.4,280.4,305.6,279.8,305.8,279 M313.7,264.4c0.9-0.8,1.9-1.3,2.8-1.7
	c1-0.4,2-0.5,3-0.5c1.1,0,2.1,0.2,3.2,0.6c1.1,0.4,2,1,2.7,1.6l-3.7,9.2h-4.3L313.7,264.4z"/>
<rect x="118.4" y="254.5" class="st0" width="2.5" height="2.5"/>
<polygon class="st0" points="128.6,291.7 124.9,291.7 116.8,300.3 116.8,291.7 113.8,291.7 113.8,308.8 116.8,308.8 116.8,303.9 
	119.5,301.1 125.3,308.8 128.9,308.8 121.5,299.1 "/>
<rect x="131.7" y="291.7" class="st0" width="3" height="17.1"/>
<polygon class="st0" points="151.3,303.5 142.1,291.7 139.3,291.7 139.3,308.8 142.3,308.8 142.3,296.7 151.7,308.8 154.2,308.8 
	154.2,291.7 151.3,291.7 "/>
<path class="st0" d="M166.7,301.9h4.4v3.2c-1.1,0.8-2.5,1.3-4.1,1.3c-3.5,0-5.8-2.6-5.8-6.1v0c0-3.3,2.4-6,5.6-6
	c2.2,0,3.5,0.7,4.8,1.8l1.9-2.3c-1.8-1.5-3.6-2.3-6.6-2.3c-5.2,0-8.8,4.1-8.8,8.8v0c0,5,3.5,8.8,8.9,8.8c3,0,5.5-1.2,7.1-2.7v-7.2
	h-7.3V301.9z"/>
<path class="st0" d="M184.5,291.7h-6.4v17.1h6.4c5.4,0,9.1-3.7,9.1-8.5v0C193.6,295.4,189.9,291.7,184.5,291.7 M190.5,300.3
	c0,3.3-2.3,5.8-5.9,5.8h-3.4v-11.6h3.4C188.1,294.5,190.5,296.9,190.5,300.3L190.5,300.3z"/>
<path class="st0" d="M205.4,291.4c-5.3,0-9,4-9,8.8v0c0,4.8,3.7,8.8,8.9,8.8c5.3,0,9-4,9-8.8v0C214.4,295.4,210.7,291.4,205.4,291.4
	 M211.2,300.3c0,3.3-2.4,6-5.8,6c-3.4,0-5.8-2.8-5.8-6.1v0c0-3.3,2.4-6,5.8-6C208.8,294.2,211.2,296.9,211.2,300.3L211.2,300.3z"/>
<polygon class="st0" points="226.5,299.8 221.3,291.7 218.1,291.7 218.1,308.8 221,308.8 221,296.6 226.4,304.6 226.5,304.6 
	231.9,296.6 231.9,308.8 234.9,308.8 234.9,291.7 231.7,291.7 "/>
<path class="st0" d="M254.9,291.4c-5.3,0-9,4-9,8.8v0c0,4.8,3.7,8.8,8.9,8.8c5.3,0,9-4,9-8.8v0C263.8,295.4,260.1,291.4,254.9,291.4
	 M260.7,300.3c0,3.3-2.4,6-5.8,6c-3.4,0-5.8-2.8-5.8-6.1v0c0-3.3,2.4-6,5.8-6C258.2,294.2,260.7,296.9,260.7,300.3L260.7,300.3z"/>
<polygon class="st0" points="267.5,308.8 270.6,308.8 270.6,301.9 279.2,301.9 279.2,299.1 270.6,299.1 270.6,294.5 280.3,294.5 
	280.3,291.7 267.5,291.7 "/>
<path class="st0" d="M297.5,298.9c-3.3-0.8-4.1-1.4-4.1-2.7v0c0-1.1,1-2,2.8-2c1.6,0,3.1,0.6,4.6,1.8l1.6-2.3
	c-1.7-1.4-3.7-2.1-6.2-2.1c-3.4,0-5.8,2-5.8,5v0c0,3.2,2.1,4.2,5.7,5.1c3.2,0.7,3.9,1.4,3.9,2.6v0c0,1.3-1.2,2.1-3,2.1
	c-2.1,0-3.8-0.8-5.4-2.2l-1.8,2.1c2.1,1.8,4.5,2.7,7.1,2.7c3.6,0,6.1-1.9,6.1-5.1v0C303,301.1,301.2,299.8,297.5,298.9"/>
<path class="st0" d="M312.3,291.6l-7.5,17.2h3.1l1.8-4.1h8.1l1.7,4.1h3.2l-7.5-17.2H312.3z M310.7,302l2.9-6.8l3,6.8H310.7z"/>
<path class="st0" d="M336,301.6c0,3.1-1.6,4.8-4.3,4.8c-2.7,0-4.3-1.7-4.3-4.9v-9.7h-3v9.8c0,5,2.8,7.5,7.3,7.5
	c4.5,0,7.4-2.6,7.4-7.7v-9.7h-3V301.6z"/>
<path class="st0" d="M349.8,291.7h-6.4v17.1h6.4c5.4,0,9.1-3.7,9.1-8.5v0C358.9,295.4,355.2,291.7,349.8,291.7 M355.7,300.3
	c0,3.3-2.3,5.8-5.9,5.8h-3.4v-11.6h3.4C353.4,294.5,355.7,296.9,355.7,300.3L355.7,300.3z"/>
<rect x="362.7" y="291.7" class="st0" width="3" height="17.1"/>
<path class="st0" d="M383.7,291.6l-7.5,17.2h3.1l1.8-4.1h8.1l1.7,4.1h3.2l-7.5-17.2H383.7z M382.1,302l2.9-6.8l3,6.8H382.1z"/>
<path class="st0" d="M410.8,297.2L410.8,297.2c0-1.5-0.5-2.8-1.4-3.7c-1.1-1.1-2.8-1.7-4.9-1.7h-7.6v17.1h3v-6h3.7h0l4.2,6h3.5
	l-4.6-6.5C409.1,301.7,410.8,300,410.8,297.2 M399.9,300.2v-5.7h4.4c2.2,0,3.5,1,3.5,2.8v0c0,1.7-1.4,2.9-3.5,2.9H399.9z"/>
<path class="st0" d="M421.1,291.6l-7.5,17.2h3.1l1.8-4.1h8.1l1.7,4.1h3.2l-7.5-17.2H421.1z M419.5,302l2.9-6.8l3,6.8H419.5z"/>
<path class="st0" d="M445.1,299.9c1.3-0.7,2.4-1.8,2.4-3.8v0c0-1.1-0.4-2.1-1.1-2.8c-1-1-2.5-1.5-4.5-1.5h-7.7v17.1h7.9
	c3.8,0,6.3-1.6,6.3-4.7v0C448.5,301.8,447.1,300.6,445.1,299.9 M437.2,294.4h4.3c1.9,0,3,0.8,3,2.2v0c0,1.6-1.3,2.3-3.2,2.3h-4.1
	V294.4z M445.5,303.8c0,1.5-1.2,2.3-3.3,2.3h-5v-4.7h4.8C444.4,301.5,445.5,302.3,445.5,303.8L445.5,303.8z"/>
<rect x="452.3" y="291.7" class="st0" width="3" height="17.1"/>
<path class="st0" d="M468.5,291.6h-2.8l-7.5,17.2h3.1l1.8-4.1h8.1l1.7,4.1h3.2L468.5,291.6z M464.1,302l2.9-6.8l3,6.8H464.1z"/>
</svg>
